<?xml version="1.0" standalone="no"?>
<!DOCTYPE svg PUBLIC "-//W3C//DTD SVG 20010904//EN"
 "http://www.w3.org/TR/2001/REC-SVG-20010904/DTD/svg10.dtd">
<svg version="1.0" xmlns="http://www.w3.org/2000/svg"
 width="500.000000pt" height="500.000000pt" viewBox="0 0 500.000000 500.000000"
 preserveAspectRatio="xMidYMid meet">

<g transform="translate(0.000000,500.000000) scale(0.100000,-0.100000)"
fill="#000000" stroke="none">
<path d="M3225 4620 c-8 -16 -15 -36 -15 -44 0 -17 -16 -22 -100 -30 -89 -9
-247 -76 -233 -99 4 -7 6 -21 5 -32 -2 -16 -1 -17 7 -5 5 8 12 12 14 10 14
-15 88 -258 84 -277 -4 -22 -1 -23 59 -23 103 0 109 -9 50 -84 -84 -109 -261
-113 -363 -8 -24 24 -43 52 -43 63 0 17 9 19 113 21 61 1 90 3 62 5 -27 3 -55
9 -61 14 -8 7 -14 6 -19 -1 -3 -5 -31 -10 -61 -10 -51 0 -54 -1 -54 -26 0 -40
95 -130 148 -139 50 -8 53 -23 15 -74 -36 -49 -79 -87 -138 -122 -65 -37 -85
-38 -85 -1 0 16 -9 55 -20 87 -14 39 -20 84 -20 139 0 64 -5 92 -24 132 -13
28 -29 55 -35 58 -6 4 -22 29 -36 56 -35 69 -69 93 -121 85 -26 -3 -45 -2 -49
5 -3 5 -24 10 -45 10 -31 0 -50 -9 -93 -44 -30 -24 -69 -52 -86 -61 -36 -18
-66 -61 -83 -120 -7 -22 -23 -55 -36 -73 -39 -51 -41 -119 -7 -187 35 -68 36
-108 6 -133 -18 -13 -25 -32 -30 -77 l-6 -60 -60 -5 c-33 -3 -74 -13 -91 -23
-46 -24 -74 -88 -74 -168 l0 -65 -46 -38 c-123 -103 -110 -271 27 -356 47 -29
49 -32 49 -75 0 -58 28 -137 80 -227 22 -39 39 -76 37 -83 -4 -9 -103 -70
-209 -128 -22 -12 -50 -17 -83 -15 -48 3 -50 4 -53 36 l-3 32 53 0 c81 0 153
22 153 46 0 28 -41 31 -55 4 -10 -18 -17 -20 -63 -14 -29 4 -62 11 -74 15
l-23 9 0 932 -1 933 -28 85 -28 85 -28 -90 -28 -89 7 -932 7 -931 -81 -7 c-66
-5 -84 -4 -96 9 -19 18 -40 20 -46 3 -10 -28 4 -38 55 -39 97 -2 152 -13 155
-31 2 -11 -5 -21 -20 -27 -39 -15 -50 -35 -42 -78 9 -49 20 -71 55 -108 28
-30 28 -31 30 -178 3 -153 9 -172 46 -165 15 3 19 17 25 88 3 47 6 120 7 162
l1 77 60 30 c33 17 75 31 94 31 35 0 151 36 205 65 39 20 51 10 51 -41 0 -17
10 -57 21 -90 20 -54 21 -76 19 -280 -3 -318 32 -524 126 -739 47 -106 57
-116 80 -79 47 78 174 266 218 324 112 147 174 281 196 423 12 72 23 97 37 83
3 -3 6 -42 5 -86 -2 -153 -67 -316 -208 -522 -196 -287 -264 -456 -264 -651 0
-84 30 -180 80 -257 30 -46 56 -68 44 -36 -3 8 -1 47 5 87 16 120 62 198 199
342 65 67 140 157 168 198 87 130 134 283 133 434 l0 80 -18 -45 c-61 -158
-155 -316 -236 -400 -101 -105 -137 -156 -201 -287 -30 -62 -60 -113 -66 -113
-7 0 -9 23 -6 68 8 109 82 251 214 413 225 276 310 510 263 729 -9 42 -8 64 6
120 31 125 -3 199 -151 336 -58 54 -116 116 -129 138 -33 58 -59 157 -50 192
7 28 8 27 29 -27 42 -111 125 -210 276 -332 101 -81 144 -130 183 -207 29 -58
32 -73 32 -157 0 -105 6 -105 51 -5 92 206 29 391 -200 590 -58 50 -54 67 6
27 73 -47 181 -166 228 -248 24 -42 47 -77 51 -77 13 0 22 111 16 204 -10 161
-91 338 -224 489 -34 38 -41 57 -22 57 13 0 72 -58 108 -105 l22 -30 -5 39
c-13 93 -96 224 -224 353 -29 28 -52 56 -52 62 0 6 26 36 58 68 111 113 295
343 358 446 56 93 65 110 110 196 25 47 62 136 84 198 22 67 50 127 67 147 15
18 39 48 53 66 53 69 63 70 188 33 40 -12 51 -20 47 -32 -2 -9 -19 -61 -36
-116 -17 -55 -33 -109 -35 -120 -9 -39 18 30 46 120 15 49 32 91 38 93 6 2 23
-35 37 -83 15 -48 29 -85 31 -83 2 3 -5 36 -17 74 -35 119 -35 118 -10 111 39
-10 10 14 -53 44 -33 16 -95 36 -137 45 -67 15 -77 20 -86 45 -8 21 -26 35
-68 54 -73 32 -81 31 -100 -5z m-19 -172 c-7 -51 -19 -79 -48 -109 -7 -8 -26
-30 -42 -49 -15 -19 -47 -55 -69 -79 l-41 -44 -12 29 c-16 38 -74 233 -74 250
0 24 114 50 229 53 l64 1 -7 -52z m-996 -247 c0 -14 -88 -91 -104 -91 -31 0
-26 22 12 60 26 26 49 40 66 40 14 0 26 -4 26 -9z m159 -22 c31 -31 55 -94 49
-132 -4 -23 -8 -24 -43 -11 -11 4 -4 -4 15 -17 33 -24 35 -28 35 -84 0 -41 -4
-60 -12 -60 -7 0 -40 24 -73 54 -34 29 -64 51 -67 48 -3 -4 22 -34 56 -67 46
-47 61 -69 61 -90 0 -39 -56 -109 -107 -134 -52 -26 -54 -36 -7 -36 28 0 34
-3 26 -12 -11 -13 -19 -80 -12 -87 3 -3 24 8 48 23 50 31 86 46 112 46 17 0
16 -4 -8 -47 l-26 -48 52 47 c29 25 95 72 149 104 100 59 224 167 249 216 23
44 41 35 48 -24 9 -71 -7 -150 -46 -227 -42 -83 -195 -240 -298 -307 -52 -33
-70 -49 -57 -52 15 -3 17 -11 11 -55 -8 -64 -35 -139 -52 -145 -6 -2 -12 3
-12 10 0 8 -19 33 -41 57 -40 41 -41 44 -35 92 4 27 20 87 36 132 16 45 27 84
24 86 -13 13 -84 -118 -84 -155 0 -12 -3 -35 -6 -51 l-6 -30 -36 19 c-31 16
-51 19 -122 14 -47 -3 -100 -8 -119 -12 -31 -6 -32 -5 -22 14 14 26 14 82 1
82 -5 0 -10 -8 -10 -18 0 -9 -11 -34 -25 -54 -23 -34 -27 -36 -57 -28 -44 13
-86 57 -99 102 -5 21 -9 75 -7 121 l3 82 40 -2 c22 -1 59 -5 83 -9 62 -9 100
9 108 52 3 19 4 47 2 64 -4 27 -3 29 21 23 l26 -6 -31 35 c-23 27 -34 51 -39
90 -8 59 -23 106 -24 76 -1 -27 -21 -22 -21 5 0 23 20 62 20 40 0 -25 19 -13
22 14 3 26 8 28 73 39 39 7 81 17 95 23 25 10 24 10 -7 10 -18 1 -66 -6 -108
-16 -41 -9 -78 -13 -81 -10 -12 12 24 82 47 94 13 7 47 13 74 14 40 1 44 3 21
8 -41 8 -36 22 15 49 23 12 57 33 73 47 41 32 68 31 105 -6z m89 -36 c25 -56
26 -64 25 -223 -2 -121 1 -172 11 -192 15 -30 12 -38 -15 -38 -33 0 -41 36
-40 180 1 126 -8 229 -25 303 -11 49 16 30 44 -30z m-154 -968 c70 -29 126
-100 146 -183 10 -43 -2 -38 -38 16 -16 24 -60 75 -97 113 -71 72 -72 79 -11
54z m324 -134 c37 -79 91 -150 203 -266 147 -152 189 -218 189 -295 0 -41 -16
-54 -26 -22 -29 89 -72 149 -189 268 -139 139 -172 183 -204 267 -21 58 -28
117 -13 117 5 0 23 -31 40 -69z m-788 -294 c29 -56 70 -127 93 -157 l42 -55 2
-120 c1 -104 10 -178 39 -312 11 -54 -14 -39 -43 25 -44 98 -63 183 -70 297
-5 98 -9 114 -33 150 -63 92 -122 248 -105 276 11 17 24 0 75 -104z"/>
<path d="M2852 4328 c-6 -23 -9 -44 -7 -46 2 -2 9 15 15 38 6 23 9 44 7 46 -2
3 -9 -14 -15 -38z"/>
<path d="M2820 4229 c-6 -24 -13 -51 -16 -59 -3 -10 -2 -11 4 -5 10 11 33 97
27 103 -2 2 -9 -16 -15 -39z"/>
<path d="M3701 4230 c0 -8 4 -24 9 -35 5 -13 9 -14 9 -5 0 8 -4 24 -9 35 -5
13 -9 14 -9 5z"/>
<path d="M3531 4164 c0 -11 3 -14 6 -6 3 7 2 16 -1 19 -3 4 -6 -2 -5 -13z"/>
<path d="M3727 4097 c-7 -4 -59 -7 -117 -6 -151 2 -190 0 -190 -9 0 -18 68
-76 110 -95 66 -29 135 -26 200 9 45 24 100 78 100 96 0 10 -91 14 -103 5z"/>
<path d="M2909 4073 c0 -5 -2 -25 -5 -45 -4 -36 -3 -38 23 -38 38 1 103 32
132 64 l24 26 -86 0 c-48 0 -87 -3 -88 -7z"/>
</g>
</svg>
