<?xml version="1.0" standalone="no"?>
<!DOCTYPE svg PUBLIC "-//W3C//DTD SVG 20010904//EN"
 "http://www.w3.org/TR/2001/REC-SVG-20010904/DTD/svg10.dtd">
<svg version="1.0" xmlns="http://www.w3.org/2000/svg"
 width="500.000000pt" height="500.000000pt" viewBox="0 0 500.000000 500.000000"
 preserveAspectRatio="xMidYMid meet">

<g transform="translate(0.000000,500.000000) scale(0.100000,-0.100000)"
fill="#000000" stroke="none">
<path d="M3232 4641 c-8 -5 -17 -24 -21 -42 -7 -34 -8 -34 -73 -41 -71 -8
-177 -44 -237 -80 -48 -29 -47 -28 -32 -37 10 -7 3 -41 -35 -160 l-48 -151
-61 0 c-34 0 -64 -3 -67 -6 -11 -11 24 -79 60 -116 22 -23 55 -44 86 -54 28
-9 53 -18 55 -20 7 -6 -63 -94 -98 -122 -45 -36 -110 -72 -131 -72 -10 0 -16
12 -18 41 -1 23 -9 57 -17 76 -9 20 -15 67 -15 107 0 94 -13 135 -70 225 -83
131 -86 134 -140 129 -30 -3 -54 0 -66 9 -29 21 -67 15 -117 -18 -26 -17 -47
-34 -47 -37 0 -4 -20 -18 -44 -31 -47 -24 -88 -76 -100 -126 -4 -16 -22 -52
-39 -79 -40 -63 -41 -126 -3 -206 28 -59 26 -96 -6 -118 -14 -10 -18 -26 -18
-71 l0 -58 -64 -5 c-121 -10 -176 -73 -176 -200 0 -63 -2 -68 -31 -89 -46 -33
-87 -95 -95 -144 -14 -94 35 -194 116 -235 35 -18 37 -22 43 -77 5 -60 40
-152 89 -236 15 -26 28 -51 28 -55 0 -4 -52 -38 -116 -76 -94 -56 -125 -69
-161 -70 -29 -1 -47 4 -53 14 -21 33 -14 35 142 54 60 8 76 23 58 57 -14 25
-44 24 -62 -3 -13 -20 -19 -21 -79 -12 l-64 9 -5 940 -5 940 -29 83 c-15 46
-31 80 -35 75 -5 -4 -18 -42 -31 -83 l-24 -75 0 -940 -1 -940 -27 3 c-14 2
-45 -2 -68 -8 -38 -10 -44 -9 -62 10 -21 23 -36 22 -51 -2 -22 -34 -2 -45 99
-51 104 -7 135 -19 91 -36 -37 -14 -61 -54 -48 -80 6 -11 11 -34 11 -52 0 -23
9 -40 36 -66 l36 -34 4 -151 c4 -151 8 -167 41 -168 28 0 43 32 43 94 0 35 3
103 7 152 l6 89 56 27 c31 15 79 30 106 34 52 7 169 47 191 65 21 17 31 3 38
-52 4 -29 14 -68 23 -88 13 -30 16 -83 18 -301 1 -230 4 -280 24 -375 28 -142
73 -280 124 -380 35 -70 41 -78 51 -61 33 56 200 303 254 375 34 46 80 121
102 165 38 78 89 243 91 296 1 21 2 20 11 -10 12 -41 -4 -164 -31 -243 -31
-89 -91 -203 -157 -300 -153 -223 -225 -363 -263 -511 -45 -173 -11 -343 93
-469 l23 -29 5 84 c4 64 13 99 36 151 38 82 68 122 192 252 107 112 144 162
194 262 47 94 74 196 82 313 9 131 0 154 -30 75 -63 -164 -153 -312 -255 -421
-87 -92 -158 -199 -204 -309 -28 -67 -44 -74 -39 -17 11 123 73 238 251 467
110 141 176 258 212 375 23 75 25 98 21 350 0 41 0 111 1 155 1 115 -26 158
-191 303 -80 70 -127 152 -137 237 l-5 50 24 -52 c48 -102 143 -213 260 -305
91 -70 153 -137 187 -201 30 -56 34 -73 39 -167 l5 -105 32 55 c117 198 83
389 -104 577 -34 35 -57 63 -51 63 6 0 40 -30 77 -67 60 -62 114 -136 165
-225 l18 -33 10 25 c6 14 13 68 15 120 11 191 -46 333 -236 592 -12 16 -12 18
2 12 15 -5 79 -83 106 -129 10 -16 11 -9 7 40 -11 107 -116 281 -234 387 -23
21 -42 41 -42 45 0 5 26 35 56 68 112 121 264 309 331 408 88 133 185 325 224
446 21 67 39 105 60 125 16 15 29 34 29 42 0 7 8 18 18 23 10 5 24 21 32 35 9
18 22 26 41 26 26 0 150 -28 158 -36 2 -2 -20 -82 -49 -179 l-53 -175 -43 0
c-24 0 -45 -4 -49 -10 -10 -17 64 -87 117 -110 99 -43 227 -7 285 79 28 42 21
54 -27 46 l-38 -6 -15 48 c-20 64 -79 265 -80 278 -1 6 9 9 22 7 32 -5 19 12
-32 40 -51 29 -126 54 -186 64 -35 6 -47 13 -62 39 -13 22 -36 40 -71 54 -55
23 -76 25 -96 12z m-35 -196 c-5 -52 -11 -63 -79 -142 -40 -47 -81 -95 -90
-107 -9 -11 -20 -18 -23 -14 -7 6 -85 255 -85 269 0 9 186 45 249 48 l34 1 -6
-55z m-245 -178 c35 -108 40 -130 27 -138 -23 -14 -169 -11 -169 4 0 6 19 74
42 150 26 87 45 133 50 125 4 -7 27 -71 50 -141z m773 -139 l7 -28 -101 0
c-81 0 -101 3 -101 14 0 15 87 283 97 299 5 9 84 -219 98 -285z m-1335 12 c22
-43 35 -110 21 -110 -5 0 -21 4 -35 10 -38 14 -32 -4 9 -26 34 -18 35 -21 35
-76 0 -32 -4 -58 -8 -58 -5 0 -35 23 -67 51 -91 79 -91 79 -165 69 -36 -5 -81
-14 -100 -20 -19 -5 -36 -10 -37 -10 -10 0 0 40 11 50 8 6 13 17 10 25 -7 17
86 38 135 29 l36 -6 -29 16 c-15 9 -38 16 -50 16 -14 0 0 12 40 33 34 18 74
43 89 55 26 21 28 21 57 4 17 -9 38 -33 48 -52z m-234 14 c-51 -47 -62 -50
-53 -12 7 26 52 58 82 57 16 0 10 -9 -29 -45z m315 -80 c7 -37 9 -106 4 -185
-6 -106 -4 -132 9 -157 20 -38 20 -42 1 -42 -31 0 -39 44 -46 250 -4 113 -10
216 -14 230 -6 23 -5 22 14 -6 12 -17 26 -58 32 -90z m659 27 c0 -22 -69 -96
-110 -117 -59 -32 -155 -33 -217 -3 -39 19 -113 91 -113 110 0 9 85 14 293 17
84 1 147 -2 147 -7z m-849 -137 c7 -15 35 -46 61 -69 37 -33 48 -50 48 -73 0
-41 -54 -110 -107 -136 -52 -26 -54 -36 -7 -36 28 0 34 -3 26 -12 -10 -13 -20
-86 -12 -90 3 -1 24 11 48 26 50 31 86 46 112 46 17 0 16 -4 -8 -47 l-26 -48
45 41 c51 46 133 101 211 140 33 16 86 60 140 115 l87 89 7 -38 c10 -50 -10
-161 -40 -222 -53 -111 -165 -229 -298 -316 -51 -34 -68 -49 -55 -52 15 -3 17
-11 11 -55 -8 -64 -35 -139 -52 -145 -6 -2 -12 3 -12 10 0 8 -19 33 -41 57
-40 41 -41 44 -35 92 4 27 20 87 36 132 16 45 27 84 24 86 -13 13 -84 -118
-84 -155 0 -12 -3 -35 -6 -51 l-6 -30 -36 19 c-31 16 -51 19 -122 14 -47 -3
-100 -8 -119 -12 -31 -6 -32 -5 -22 14 14 26 14 82 1 82 -5 0 -10 -8 -10 -18
0 -9 -11 -34 -25 -54 -23 -34 -27 -36 -57 -28 -44 13 -86 57 -99 102 -5 21 -9
75 -7 121 l3 82 40 -2 c22 -1 59 -5 83 -9 62 -9 100 9 108 52 3 19 4 47 2 64
-4 27 -3 29 21 23 l26 -6 -32 36 c-36 41 -50 111 -39 201 l7 54 56 7 c31 4 66
11 77 15 39 16 62 11 77 -16z m-241 -79 c0 -19 -4 -35 -10 -35 -11 0 -13 30
-4 54 10 25 14 19 14 -19z m256 -708 c78 -33 124 -85 148 -166 18 -62 8 -63
-32 -3 -16 24 -60 75 -97 113 -69 69 -72 80 -19 56z m314 -121 c0 -30 104
-169 215 -286 65 -69 131 -145 147 -170 33 -51 51 -110 42 -135 -5 -11 -13 0
-29 40 -30 72 -57 108 -188 241 -61 62 -122 131 -138 154 -45 66 -87 192 -59
175 6 -3 10 -12 10 -19z m-704 -442 c19 -29 41 -58 49 -64 12 -10 15 -39 15
-129 0 -75 7 -154 21 -225 11 -59 18 -110 16 -112 -7 -7 -55 106 -73 171 -9
33 -18 109 -21 170 -6 106 -7 111 -43 165 -43 62 -75 135 -89 197 -15 69 0 58
47 -34 24 -48 59 -111 78 -139z"/>
<path d="M2900 4040 c0 -22 -1 -43 -2 -47 -3 -14 29 -15 72 -3 24 7 60 28 84
50 l41 39 -97 1 -98 0 0 -40z"/>
</g>
</svg>
