<?xml version="1.0" standalone="no"?>
<!DOCTYPE svg PUBLIC "-//W3C//DTD SVG 20010904//EN"
 "http://www.w3.org/TR/2001/REC-SVG-20010904/DTD/svg10.dtd">
<svg version="1.0" xmlns="http://www.w3.org/2000/svg"
 width="500.000000pt" height="500.000000pt" viewBox="0 0 500.000000 500.000000"
 preserveAspectRatio="xMidYMid meet">

<g transform="translate(0.000000,500.000000) scale(0.100000,-0.100000)"
fill="#000000" stroke="none">
<path d="M2085 3422 l-170 -117 -3 -496 -2 -496 175 -116 c96 -65 177 -117
180 -117 3 0 5 110 5 245 0 157 -4 245 -10 245 -13 0 -13 53 -1 65 12 12 20
325 9 318 -5 -2 -8 -17 -8 -33 0 -52 -20 -60 -140 -60 -119 0 -146 11 -137 57
2 12 0 23 -4 23 -18 0 -7 26 61 145 39 67 70 129 70 137 0 9 -7 21 -15 28 -18
15 -19 42 -3 58 18 18 41 15 61 -8 11 -13 25 -19 40 -16 12 3 34 7 50 11 l27
5 0 120 c0 66 -3 120 -7 119 -5 0 -84 -53 -178 -117z"/>
<path d="M2720 3415 c0 -111 1 -115 23 -119 75 -15 85 -15 102 4 20 23 45 26
63 8 17 -17 15 -47 -3 -54 -28 -11 -15 -55 45 -158 33 -57 60 -108 60 -114 0
-6 6 -12 13 -15 10 -4 10 -7 0 -18 -7 -7 -13 -25 -13 -39 0 -44 -15 -50 -135
-50 -120 0 -135 6 -135 51 0 15 -4 31 -10 34 -6 4 -10 -46 -10 -142 1 -114 4
-152 15 -167 20 -26 19 -66 0 -66 -13 0 -15 -35 -15 -251 0 -215 2 -250 14
-246 8 3 89 56 180 117 l166 110 0 498 0 498 -175 117 c-96 64 -177 117 -180
117 -3 0 -5 -52 -5 -115z"/>
<path d="M2140 3252 c-23 -8 -7 -61 50 -159 33 -58 60 -109 60 -114 0 -5 5 -9
10 -9 6 0 10 54 10 143 l0 144 -60 -1 c-33 0 -64 -2 -70 -4z"/>
<path d="M2720 3107 c0 -91 4 -147 9 -142 22 23 141 239 141 256 0 26 -18 34
-87 35 l-63 2 0 -151z"/>
<path d="M2052 3071 c-29 -51 -51 -95 -49 -97 2 -3 56 -3 119 -2 l115 3 -51
90 -51 90 -3 -87 c-1 -49 -7 -88 -12 -88 -5 0 -11 42 -12 93 l-3 92 -53 -94z"/>
<path d="M2815 3073 c-27 -47 -51 -90 -53 -95 -2 -4 21 -8 52 -8 l56 0 0 95
c0 52 -1 95 -2 95 -2 0 -25 -39 -53 -87z"/>
<path d="M2888 3066 l-3 -96 58 0 58 0 -15 28 c-8 15 -32 58 -54 96 l-41 68
-3 -96z"/>
<path d="M3772 1818 c-16 -16 -15 -43 3 -58 23 -19 18 -38 -12 -54 -25 -13
-25 -15 -7 -16 48 -1 92 91 59 123 -20 20 -27 21 -43 5z"/>
<path d="M780 1811 c0 -5 7 -11 15 -15 12 -4 15 -29 15 -136 0 -107 -3 -132
-15 -136 -39 -15 -5 -24 95 -24 l109 0 7 35 c9 49 -2 55 -32 17 -22 -27 -32
-32 -70 -32 l-44 0 0 135 c0 111 3 137 15 141 32 13 13 24 -40 24 -30 0 -55
-4 -55 -9z"/>
<path d="M1297 1768 c-13 -29 -41 -95 -62 -145 -24 -60 -44 -95 -56 -98 -38
-12 -17 -25 41 -25 33 0 60 4 60 10 0 6 -9 10 -19 10 -29 0 -34 16 -16 50 15
29 18 30 79 30 63 0 64 -1 75 -31 12 -34 7 -49 -15 -49 -8 0 -14 -4 -14 -10 0
-6 28 -10 65 -10 62 0 85 12 47 24 -13 4 -35 51 -73 148 -63 167 -76 178 -112
96z m57 -72 c24 -74 23 -76 -34 -76 -27 0 -50 2 -50 5 0 19 54 135 60 128 4
-4 15 -30 24 -57z"/>
<path d="M1620 1811 c0 -5 8 -11 17 -13 13 -2 32 -44 68 -147 27 -80 55 -146
62 -148 8 -3 25 38 48 112 20 64 40 114 43 110 4 -3 23 -54 43 -113 22 -66 41
-107 49 -107 9 0 30 53 60 145 33 106 50 146 63 148 38 8 13 22 -38 22 -30 0
-55 -4 -55 -10 0 -5 6 -10 14 -10 8 0 17 -4 21 -10 6 -9 -42 -189 -54 -203 -4
-4 -24 47 -44 113 -23 74 -42 120 -51 120 -8 0 -28 -47 -53 -122 l-40 -123
-31 101 c-38 119 -38 124 -12 124 11 0 20 5 20 10 0 6 -28 10 -65 10 -36 0
-65 -4 -65 -9z"/>
<path d="M2230 1810 c0 -5 6 -10 14 -10 22 0 26 -24 26 -146 0 -103 -2 -115
-20 -126 -32 -20 -24 -28 30 -28 52 0 60 5 35 24 -13 9 -15 32 -13 126 l3 114
51 -129 c29 -72 57 -130 64 -130 7 0 33 58 59 130 l46 130 3 -115 c2 -94 0
-117 -13 -126 -26 -19 -17 -24 40 -24 53 0 72 11 40 24 -12 4 -15 29 -15 136
0 107 3 132 15 136 32 12 13 25 -32 22 l-47 -3 -28 -75 c-16 -41 -35 -95 -44
-118 -9 -24 -20 -40 -24 -35 -4 4 -26 59 -50 121 l-43 112 -48 0 c-27 0 -49
-4 -49 -10z"/>
<path d="M2897 1768 c-13 -29 -41 -95 -62 -145 -24 -60 -44 -95 -56 -98 -38
-12 -17 -25 41 -25 33 0 60 4 60 10 0 6 -9 10 -19 10 -29 0 -34 16 -16 50 15
29 18 30 79 30 63 0 64 -1 75 -31 12 -34 7 -49 -15 -49 -8 0 -14 -4 -14 -10 0
-6 28 -10 65 -10 62 0 85 12 47 24 -13 4 -35 51 -73 148 -63 167 -76 178 -112
96z m57 -72 c24 -74 23 -76 -34 -76 -27 0 -50 2 -50 5 0 19 54 135 60 128 4
-4 15 -30 24 -57z"/>
<path d="M3250 1810 c0 -5 6 -10 14 -10 22 0 26 -24 26 -146 0 -103 -2 -115
-20 -126 -32 -20 -24 -28 30 -28 52 0 60 5 35 24 -13 9 -15 31 -13 115 l3 104
95 -121 c52 -67 101 -122 108 -122 9 0 12 36 12 145 0 120 3 147 15 151 31 12
13 24 -35 24 -50 0 -67 -13 -30 -23 18 -5 20 -14 20 -106 0 -56 -2 -101 -4
-101 -2 0 -45 52 -95 115 -85 107 -93 115 -126 115 -19 0 -35 -4 -35 -10z"/>
<path d="M4045 1795 c-29 -28 -32 -70 -10 -102 8 -12 40 -36 70 -53 68 -39 83
-62 60 -96 -11 -17 -24 -24 -48 -24 -41 0 -52 9 -52 40 0 34 -40 41 -50 9 -11
-35 34 -69 91 -69 50 0 98 20 108 45 19 51 -3 87 -82 135 -29 18 -57 41 -63
51 -22 42 14 76 72 67 19 -2 23 -8 21 -30 -4 -29 8 -41 32 -32 23 9 20 50 -6
68 -13 9 -43 16 -71 16 -38 0 -53 -5 -72 -25z"/>
</g>
</svg>
