<?xml version="1.0" standalone="no"?>
<!DOCTYPE svg PUBLIC "-//W3C//DTD SVG 20010904//EN"
 "http://www.w3.org/TR/2001/REC-SVG-20010904/DTD/svg10.dtd">
<svg version="1.0" xmlns="http://www.w3.org/2000/svg"
 width="400.000000pt" height="472.000000pt" viewBox="0 0 400.000000 472.000000"
 preserveAspectRatio="xMidYMid meet">

<g transform="translate(0.000000,472.000000) scale(0.100000,-0.100000)"
fill="#000000" stroke="none">
<path d="M0 2360 l0 -2360 2000 0 2000 0 0 2360 0 2360 -2000 0 -2000 0 0
-2360z m1594 2153 c-42 -70 -43 -84 -3 -44 34 34 78 41 99 16 23 -28 28 -15
14 32 -17 56 -4 46 19 -15 22 -56 21 -100 -3 -140 -35 -57 -92 -62 -135 -10
-14 16 -25 37 -26 46 0 9 -2 26 -4 36 -4 20 14 62 47 109 33 46 28 30 -8 -30z
m-849 -148 c26 -10 37 -22 41 -45 5 -25 13 -32 48 -41 61 -17 161 -5 247 29
147 59 264 65 399 23 97 -31 95 -29 75 -92 -10 -30 -19 -55 -20 -57 -1 -1 -24
8 -51 21 -27 14 -71 30 -99 36 -74 18 -254 15 -326 -5 -68 -19 -187 -15 -254
9 -29 10 -46 11 -67 3 -24 -9 -36 -7 -66 9 -57 31 -56 92 3 115 28 12 31 12
70 -5z m1285 -64 c25 -13 59 -33 75 -46 81 -60 211 -105 308 -105 41 0 49 3
57 24 26 68 160 56 160 -14 0 -44 -65 -79 -118 -65 -15 5 -60 7 -100 6 -89 -2
-173 12 -224 39 -73 38 -196 64 -303 65 -121 0 -170 -14 -179 -53 -10 -47 -18
-54 -55 -41 -18 6 -50 9 -72 6 -39 -5 -39 -5 -39 28 0 18 7 38 15 45 17 14 79
17 114 5 23 -8 23 -7 20 51 l-4 59 45 12 c27 8 88 11 150 9 85 -2 113 -7 150
-25z m-1565 -337 c-158 -271 -175 -299 -175 -275 0 15 321 553 327 547 2 -2
-66 -124 -152 -272z m389 -102 c70 -195 124 -358 121 -363 -4 -5 1 -19 9 -31
9 -12 16 -39 16 -60 0 -46 -41 -97 -103 -126 -147 -69 -443 -54 -624 32 -99
47 -147 86 -173 142 -22 43 -22 47 -6 88 32 83 129 124 315 135 l114 6 34 155
c58 270 86 385 90 374 2 -6 -21 -127 -51 -270 -30 -142 -52 -262 -50 -266 3
-5 15 -8 28 -8 43 0 192 -43 251 -72 33 -17 80 -46 104 -66 25 -20 38 -27 32
-16 -6 10 -27 64 -45 119 -34 99 -187 542 -202 580 -5 14 -4 17 4 10 6 -5 67
-169 136 -363z m792 223 c2 -5 -24 -23 -56 -39 -33 -16 -82 -50 -110 -75 -50
-44 -53 -51 -101 -196 -68 -208 -104 -339 -133 -485 -53 -267 -43 -406 42
-581 27 -57 40 -92 29 -78 -35 42 -85 161 -101 241 -9 45 -16 126 -16 195 0
232 52 465 168 748 53 132 71 159 130 196 27 17 39 29 28 29 -25 0 -16 32 14
47 28 15 102 13 106 -2z m1103 -348 c69 -193 136 -366 149 -384 56 -75 32
-156 -61 -198 -81 -38 -149 -48 -277 -42 -266 12 -482 125 -482 251 0 98 134
160 341 158 129 -1 270 -34 367 -86 49 -26 64 -30 59 -18 -3 9 -55 157 -115
327 -59 171 -111 318 -115 328 -4 9 -3 17 1 17 5 0 65 -159 133 -353z m-282
291 c-13 -24 -82 -142 -152 -263 -121 -211 -155 -262 -155 -238 0 8 234 407
306 521 26 40 27 23 1 -20z m142 -228 c43 -264 47 -301 33 -284 -5 5 -19 79
-31 164 -25 167 -48 317 -57 365 -4 20 -3 27 4 20 5 -5 28 -125 51 -265z
m-903 236 c12 -47 -12 -58 -60 -27 l-29 19 29 16 c40 21 53 20 60 -8z m-28
-204 c-22 -43 -30 -49 -87 -69 -34 -12 -65 -24 -68 -26 -3 -3 16 -9 41 -12 42
-7 88 -29 76 -37 -3 -2 -37 -2 -76 0 -69 3 -71 4 -66 28 5 28 48 62 101 79 27
9 44 25 66 62 37 62 47 41 13 -25z m-63 -182 c40 -15 21 -28 -35 -22 -40 4
-50 2 -50 -11 0 -10 14 -17 45 -21 53 -8 66 -24 37 -44 -19 -12 -22 -24 -22
-79 l0 -64 -50 7 c-41 5 -50 4 -50 -8 0 -11 15 -17 52 -21 53 -7 86 -27 74
-46 -10 -16 -33 -13 -40 5 -4 11 -17 14 -48 12 -58 -4 -60 -24 -2 -33 61 -9
74 -14 74 -31 0 -10 -6 -11 -26 -4 -14 6 -41 10 -60 10 -26 0 -34 -4 -34 -18
0 -14 8 -19 28 -19 56 0 82 -12 82 -38 0 -23 -3 -25 -27 -18 -16 4 -41 7 -58
8 -25 0 -30 -4 -33 -27 -3 -26 -2 -27 28 -18 58 17 114 -26 90 -70 -15 -28
-51 -34 -95 -16 -21 9 -39 16 -41 16 -2 0 -8 -18 -14 -41 -6 -23 -13 -39 -15
-37 -3 2 9 105 25 227 16 123 33 266 36 317 l7 94 48 0 c26 0 60 -4 74 -10z
m371 -438 c6 -4 16 -17 23 -29 6 -13 20 -23 31 -23 24 0 79 -47 91 -78 14 -37
3 -39 -16 -2 -9 18 -30 37 -48 45 -47 19 -153 28 -177 15 -12 -6 -20 -7 -20
-1 0 12 66 34 79 27 5 -4 12 -2 15 3 10 15 -22 33 -46 26 -22 -6 -22 -5 2 9
28 17 49 20 66 8z m-181 -84 c-86 -44 -134 -115 -135 -198 0 -40 -4 -47 -36
-68 -19 -13 -42 -37 -49 -55 -12 -27 -14 -29 -15 -9 0 13 17 41 40 66 33 36
40 50 40 85 0 77 48 143 130 180 59 27 77 26 25 -1z m21 -29 c-15 -11 -33 -37
-41 -56 -18 -43 -19 -51 -3 -35 23 23 29 12 9 -14 -12 -15 -21 -38 -21 -51 l0
-25 35 30 c19 17 52 34 72 37 48 9 104 26 121 39 7 5 15 6 18 4 3 -3 -11 -16
-30 -28 -20 -12 -36 -26 -36 -31 0 -5 -17 -9 -37 -9 -44 0 -99 -30 -114 -63
-5 -12 -23 -30 -40 -39 -37 -22 -37 -43 1 -63 34 -18 46 -51 35 -103 -9 -41
-10 -75 -4 -144 l4 -47 48 -11 c26 -5 61 -17 77 -25 29 -15 30 -15 66 25 40
44 81 53 122 24 20 -14 22 -14 22 3 0 10 -7 40 -15 66 -17 55 -9 86 30 120 14
12 36 49 49 81 l24 59 21 -34 c27 -44 26 -62 -3 -90 -21 -20 -23 -29 -19 -79
5 -49 2 -60 -20 -85 -22 -27 -23 -31 -10 -51 12 -19 12 -24 0 -36 -8 -7 -16
-35 -19 -61 -5 -46 -4 -49 30 -75 56 -42 118 -134 132 -194 7 -29 20 -66 30
-83 33 -56 50 -135 49 -229 l-2 -91 -12 86 c-7 48 -18 104 -25 125 -39 120
-125 222 -238 282 -41 22 -68 44 -78 64 -24 45 -103 127 -144 148 -19 10 -65
21 -101 24 -114 10 -139 29 -184 136 -37 90 -40 106 -21 135 9 14 16 31 15 38
-4 32 4 50 35 84 24 27 37 55 45 95 14 67 43 114 90 145 43 29 74 31 37 2z
m264 -29 c31 -16 20 -22 -21 -10 -18 6 -68 11 -109 11 -62 1 -69 3 -40 10 46
10 142 4 170 -11z m52 -110 l27 -20 3 23 c3 18 6 15 17 -16 7 -21 10 -45 7
-53 -5 -13 -14 -9 -46 20 -35 31 -47 36 -91 36 -52 0 -58 13 -15 30 27 12 64
4 98 -20z m-651 -94 c8 -32 17 -45 39 -53 44 -16 49 -65 15 -133 l-26 -52 -26
23 c-41 38 -65 104 -71 195 -2 45 -2 91 2 101 7 16 10 15 32 -10 13 -15 29
-47 35 -71z m572 -13 c-7 -2 -21 -2 -30 0 -10 3 -4 5 12 5 17 0 24 -2 18 -5z
m21 -72 c13 -5 -11 -12 -75 -23 -52 -8 -96 -14 -97 -12 -2 1 13 12 35 23 38
20 102 26 137 12z m-815 -100 c17 -32 42 -68 56 -80 l27 -20 -32 -40 c-42 -51
-110 -108 -184 -151 -66 -40 -122 -99 -131 -140 -7 -33 -66 -100 -88 -100 -18
0 -57 46 -57 67 0 31 41 91 94 136 61 52 128 135 171 212 27 49 108 174 112
175 2 0 16 -27 32 -59z m161 -31 c-6 -11 -20 -25 -33 -31 -18 -10 -17 -6 7 20
34 36 41 39 26 11z m140 -45 c-5 -22 -32 -78 -59 -124 -60 -99 -81 -152 -121
-308 -45 -174 -50 -352 -14 -533 6 -25 4 -29 -10 -24 -21 8 -101 115 -132 177
-47 93 -42 223 12 287 27 32 47 40 38 15 -4 -8 0 -46 7 -83 l13 -67 13 107
c21 176 86 356 163 448 42 51 80 120 80 147 0 11 3 13 9 8 6 -6 7 -25 1 -50z
m-250 -224 c-51 -27 -77 -83 -100 -213 -27 -146 -37 -177 -65 -190 -31 -14
-80 16 -123 75 l-32 45 76 4 c91 4 108 19 117 99 13 104 81 200 142 199 15 -1
11 -6 -15 -19z m248 -176 c-96 -268 -149 -536 -118 -594 10 -19 17 -22 46 -16
20 3 59 15 89 27 59 22 45 7 315 363 133 176 134 178 121 143 -22 -59 -87
-178 -140 -257 -31 -47 -63 -98 -72 -115 -25 -47 -112 -124 -171 -151 -29 -13
-76 -27 -105 -31 -48 -6 -54 -10 -70 -42 -23 -47 -48 -62 -67 -42 -13 13 -14
37 -6 166 18 278 74 470 188 641 19 29 36 52 38 50 1 -1 -20 -65 -48 -142z
m145 9 c-34 -75 -36 -181 -5 -245 12 -24 20 -43 19 -43 -33 -9 -68 -46 -103
-111 l-41 -77 -24 49 c-18 37 -23 64 -23 121 1 64 5 81 42 155 37 74 135 207
154 207 4 0 -5 -25 -19 -56z m2117 -97 c-129 -162 -880 -1149 -882 -1159 -2
-6 11 -15 27 -18 29 -6 29 -6 7 -14 -13 -4 -45 -3 -72 4 -83 20 -143 95 -175
217 -19 72 -19 73 4 73 13 0 20 -9 24 -35 7 -41 65 -167 76 -163 4 2 109 125
232 273 124 149 268 320 320 381 52 61 172 204 268 317 95 113 181 207 190
209 31 7 23 -33 -19 -85z m-1654 -287 c18 -56 37 -78 94 -112 56 -33 99 -79
133 -142 34 -61 34 -81 0 -102 -16 -10 -38 -28 -50 -42 l-21 -25 -22 34 c-18
29 -20 44 -16 102 7 75 -3 104 -51 148 -36 35 -69 41 -211 41 l-117 0 62 28
c66 30 157 107 170 144 7 20 7 20 11 -4 2 -14 10 -45 18 -70z m-46 -286 c0 -3
-15 -11 -32 -19 -18 -7 -267 -129 -553 -270 -286 -141 -542 -263 -570 -271
-155 -48 -210 -111 -231 -266 -6 -40 -3 -54 17 -85 62 -95 66 -173 10 -173
-12 0 -12 3 -3 12 21 21 13 44 -37 101 -72 83 -77 158 -15 279 46 92 150 168
227 168 11 0 41 15 66 33 54 39 248 157 259 157 4 0 31 51 60 112 29 61 54
109 57 106 3 -3 -6 -43 -19 -89 -13 -46 -24 -85 -23 -86 1 0 56 23 122 53 139
64 331 137 495 189 63 20 126 40 140 45 14 5 26 9 28 9 1 1 2 -1 2 -5z m254
-271 c25 -113 30 -236 15 -369 l-14 -119 -6 170 c-6 158 -24 374 -35 420 -4
15 -1 14 9 -5 8 -14 22 -58 31 -97z m-462 -95 c-100 -68 -258 -176 -350 -240
-92 -64 -201 -140 -242 -169 l-75 -52 50 52 c58 61 148 130 301 233 125 84
474 297 489 298 5 0 -73 -55 -173 -122z m677 -171 c28 -24 32 -24 68 -11 46
16 66 17 58 4 -3 -5 -19 -10 -34 -10 -15 0 -32 -5 -38 -11 -28 -28 -117 64
-196 203 -49 85 -28 64 42 -43 39 -59 83 -118 100 -132z m244 -82 c17 -10 47
-22 66 -26 20 -4 69 -19 110 -34 40 -15 82 -24 92 -22 11 3 19 1 19 -4 0 -10
-8 -11 -70 -9 -25 1 -65 11 -90 23 -30 14 -65 21 -109 21 -57 1 -66 4 -84 28
-18 24 -19 30 -7 58 l13 32 15 -25 c8 -13 29 -33 45 -42z m-1673 -42 c-120
-91 -196 -207 -210 -322 l-9 -66 3 85 c2 65 8 95 25 129 31 60 106 138 166
172 62 36 70 37 25 2z m1365 -30 c11 -7 15 -13 10 -13 -13 0 -85 48 -85 57 0
5 25 -9 75 -44z m335 -22 c-56 -8 -70 -17 -70 -42 0 -32 -17 -55 -50 -69 -16
-7 -30 -18 -30 -26 0 -25 -23 -64 -42 -70 -10 -3 -29 -27 -43 -54 -30 -59 -72
-122 -88 -132 -26 -16 -87 21 -87 52 0 10 21 46 47 81 26 35 57 85 70 111 17
35 31 50 58 59 25 9 38 22 45 45 8 24 16 31 27 27 9 -4 14 -2 10 3 -3 5 10 8
31 6 21 -2 48 1 62 7 14 5 43 9 65 9 l40 -1 -45 -6z m-2227 -463 c-82 -91 -48
-179 87 -229 57 -21 61 -24 36 -27 -77 -9 -158 37 -194 108 -26 53 -17 92 33
138 39 36 70 44 38 10z m204 -19 c-8 -19 -28 -49 -45 -66 -34 -37 -78 -43
-122 -18 l-25 14 33 1 c49 0 93 22 132 67 19 22 36 39 38 37 2 -1 -3 -17 -11
-35z"/>
<path d="M365 3594 c-113 -13 -192 -43 -233 -86 l-22 -25 23 -34 c98 -147 487
-232 715 -158 63 21 122 67 122 96 0 27 -76 91 -153 127 -87 42 -162 62 -282
76 -89 10 -112 10 -170 4z"/>
<path d="M2240 3424 c-69 -19 -130 -58 -130 -84 0 -53 133 -141 265 -175 197
-51 421 -30 502 47 33 31 29 51 -23 96 -55 49 -168 98 -271 118 -96 18 -271
17 -343 -2z"/>
</g>
</svg>
